#!OML:ASF H:\Dans Jumps\Project 1\Capture day 1\Session 1\subject.ASF
:FULLY-SPECIFIED
:DEGREES
241
root 0.39863 16.0417 -3.58547 0.467865 -6.17094 -1.10322
lowerback 7.54131 -0.445921 -1.13373
upperback 5.26099 -0.674501 1.95475
thorax 1.24608 -0.40382 2.69461
lowerneck -10.8768 1.74144 0.357366
upperneck 34.2963 2.96143 -1.72505
head 13.3752 1.08692 -0.326185
rclavicle 9.0447e-015 -1.43125e-014
rhumerus -15.3373 -12.0654 -82.7671
rradius 24.142
rwrist 34.5514
rhand -25.4132 -26.8718
rfingers 7.12502
rthumb 1.11245 -56.8486
lclavicle 9.0447e-015 -1.43125e-014
lhumerus -7.59793 1.61276 86.0358
lradius 20.3185
lwrist 17.0081
lhand -31.2676 -10.0168
lfingers 7.12502
lthumb -4.54157 19.9145
rfemur -33.2778 -1.06266 19.9897
rtibia 60.3217
rfoot -23.1602 -4.21438
rtoes 7.00271
lfemur -31.9087 7.24755 -16.4102
ltibia 56.3523
lfoot -21.663 6.72771
ltoes -8.39609
242
root 0.405036 16.088 -3.59017 1.04201 -6.47174 -1.05819
lowerback 7.58863 -0.488915 -1.08723
upperback 5.2293 -0.729002 1.94529
thorax 1.18924 -0.429082 2.66274
lowerneck -10.9064 1.83373 0.384919
upperneck 34.1744 3.12492 -1.85096
head 13.3344 1.14501 -0.35699
rclavicle 1.799e-014 1.63003e-014
rhumerus -15.4786 -12.3682 -82.7175
rradius 23.9739
rwrist 34.795
rhand -25.4053 -26.8068
rfingers 7.12502
rthumb 1.12012 -56.7836
lclavicle 1.799e-014 1.63003e-014
lhumerus -7.41085 2.00116 85.7438
lradius 20.0137
lwrist 16.4596
lhand -31.2514 -9.96844
lfingers 7.12502
lthumb -4.52589 19.9632
rfemur -33.4624 -0.716399 19.9544
rtibia 59.3892
rfoot -23.0283 -4.40706
rtoes 7.45406
lfemur -32.1803 7.40922 -16.5334
ltibia 55.711
lfoot -21.4078 6.54683
ltoes -7.83019
243
root 0.411631 16.1325 -3.59497 1.62077 -6.75635 -0.995798
lowerback 7.62198 -0.536061 -1.04972
upperback 5.19577 -0.789367 1.92927
thorax 1.13845 -0.457445 2.62945
lowerneck -10.9254 1.92664 0.393981
upperneck 34.0374 3.29198 -1.973
head 13.2847 1.20327 -0.382463
rclavicle 4.96962e-015 -1.31198e-014
rhumerus -15.6462 -12.6598 -82.6554
rradius 23.8326
rwrist 34.9271
rhand -25.3981 -26.7641
rfingers 7.12502
rthumb 1.12705 -56.7409
lclavicle 4.96962e-015 -1.31198e-014
lhumerus -7.22886 2.32565 85.4601
lradius 19.7485
lwrist 15.9932
lhand -31.2053 -9.90271
lfingers 7.12502
lthumb -4.48138 20.0299
rfemur -33.6788 -0.397003 19.8919
rtibia 58.5252
rfoot -22.8839 -4.58409
rtoes 7.7839
lfemur -32.4728 7.55182 -16.6795
ltibia 55.0867
lfoot -21.1493 6.36458
ltoes -7.30477
244
root 0.418727 16.1754 -3.59956 2.18881 -7.0384 -0.914822
lowerback 7.64818 -0.58268 -1.02399
upperback 5.16939 -0.849743 1.90856
thorax 1.09905 -0.486224 2.59789
lowerneck -10.9496 2.01979 0.394
upperneck 33.8958 3.46457 -2.10453
head 13.2349 1.26181 -0.409093
rclavicle 1.5704e-014 2.38542e-015
rhumerus -15.8271 -12.9476 -82.5781
rradius 23.7049
rwrist 34.9823
rhand -25.3977 -26.7463
rfingers 7.12502
rthumb 1.12742 -56.723
lclavicle 1.5704e-014 2.38542e-015
lhumerus -7.03594 2.60988 85.1917
lradius 19.5197
lwrist 15.6397
lhand -31.0802 -9.86309
lfingers 7.12502
lthumb -4.36055 20.072
rfemur -33.9374 -0.0957449 19.8004
rtibia 57.7551
rfoot -22.6916 -4.7244
rtoes 8.01411
lfemur -32.7621 7.68343 -16.8478
ltibia 54.4754
lfoot -20.8928 6.18705
ltoes -6.80559
245
root 0.426364 16.2167 -3.60436 2.73383 -7.33346 -0.814421
lowerback 7.68116 -0.622174 -1.01632
upperback 5.15556 -0.901891 1.88347
thorax 1.06867 -0.511487 2.57155
lowerneck -10.9777 2.11114 0.384753
upperneck 33.7454 3.63836 -2.24207
head 13.1827 1.31928 -0.436075
rclavicle -2.16675e-014 -9.54166e-015
rhumerus -15.9992 -13.2726 -82.4833
rradius 23.5582
rwrist 35.0382
rhand -25.4061 -26.73
rfingers 7.12502
rthumb 1.11933 -56.7068
lclavicle -2.16675e-014 -9.54166e-015
lhumerus -6.81627 2.86275 84.9428
lradius 19.3207
lwrist 15.4095
lhand -30.917 -9.8042
lfingers 7.12502
lthumb -4.20295 20.1341
rfemur -34.2471 0.199894 19.6798
rtibia 57.092
rfoot -22.4333 -4.81012
rtoes 8.17241
lfemur -33.0344 7.81744 -17.038
ltibia 53.8775
lfoot -20.6389 6.02059
ltoes -6.31994
246
root 0.434409 16.256 -3.60902 3.24358 -7.64777 -0.701912
lowerback 7.73008 -0.65124 -1.02381
upperback 5.15528 -0.941323 1.85682
thorax 1.04311 -0.530931 2.55151
lowerneck -11.0052 2.19825 0.364148
upperneck 33.5957 3.80801 -2.3784
head 13.1308 1.37393 -0.461054
rclavicle 1.5704e-014 1.31198e-014
rhumerus -16.1753 -13.5923 -82.3684
rradius 23.402
rwrist 35.1131
rhand -25.4097 -26.7311
rfingers 7.12502
rthumb 1.11588 -56.7079
lclavicle 1.5704e-014 1.31198e-014
lhumerus -6.56622 3.09667 84.7179
lradius 19.1359
lwrist 15.269
lhand -30.7279 -9.72163
lfingers 7.12502
lthumb -4.02035 20.2202
rfemur -34.5945 0.495712 19.5389
rtibia 56.5313
rfoot -22.1131 -4.8315
rtoes 8.32406
lfemur -33.2734 7.96651 -17.2415
ltibia 53.2936
lfoot -20.3944 5.86862
ltoes -5.84393
247
root 0.442502 16.2933 -3.61358 3.70788 -7.98221 -0.580633
lowerback 7.80229 -0.667244 -1.04847
upperback 5.17291 -0.964782 1.82778
thorax 1.02273 -0.543013 2.53792
lowerneck -11.0439 2.27995 0.342381
upperneck 33.4568 3.96897 -2.51113
head 13.0862 1.42509 -0.485427
rclavicle -8.44835e-015 9.93923e-015
rhumerus -16.3438 -13.9277 -82.2355
rradius 23.2154
rwrist 35.2594
rhand -25.399 -26.7425
rfingers 7.12502
rthumb 1.12618 -56.7192
lclavicle -8.44835e-015 9.93923e-015
lhumerus -6.27811 3.35343 84.518
lradius 18.9509
lwrist 15.1281
lhand -30.5335 -9.62573
lfingers 7.12502
lthumb -3.83261 20.3196
rfemur -34.9559 0.790645 19.3844
rtibia 56.0538
rfoot -21.7552 -4.79322
rtoes 8.48639
lfemur -33.4688 8.14041 -17.4539
ltibia 52.7254
lfoot -20.1622 5.73506
ltoes -5.3847
248
root 0.450333 16.3288 -3.61787 4.12 -8.33278 -0.452562
lowerback 7.90249 -0.67102 -1.09107
upperback 5.20698 -0.973477 1.79503
thorax 1.00354 -0.548291 2.52999
lowerneck -11.0832 2.35579 0.321312
upperneck 33.3298 4.11774 -2.63327
head 13.0467 1.47236 -0.507441
rclavicle -1.05356e-014 4.45278e-014
rhumerus -16.5111 -14.2716 -82.0861
rradius 23.0009
rwrist 35.5037
rhand -25.3673 -26.7673
rfingers 7.12502
rthumb 1.15687 -56.7439
lclavicle -1.05356e-014 4.45278e-014
lhumerus -5.95468 3.63205 84.3402
lradius 18.7519
lwrist 14.9325
lhand -30.359 -9.52327
lfingers 7.12502
lthumb -3.66411 20.425
rfemur -35.2971 1.07657 19.2202
rtibia 55.6287
rfoot -21.3951 -4.70454
rtoes 8.6687
lfemur -33.6124 8.34301 -17.6733
ltibia 52.1713
lfoot -19.9415 5.62485
ltoes -4.95353
249
root 0.457539 16.3626 -3.62162 4.48142 -8.68357 -0.325281
lowerback 8.02362 -0.667186 -1.14577
upperback 5.2579 -0.973237 1.75991
thorax 0.990084 -0.549612 2.52604
lowerneck -11.1194 2.42492 0.299591
upperneck 33.2118 4.24994 -2.73459
head 13.0096 1.51503 -0.523578
rclavicle -1.36167e-014 -1.27222e-014
rhumerus -16.6665 -14.6344 -81.923
rradius 22.7437
rwrist 35.8514
rhand -25.3236 -26.8049
rfingers 7.12502
rthumb 1.19907 -56.7812
lclavicle -1.36167e-014 -1.27222e-014
lhumerus -5.59648 3.95619 84.184
lradius 18.5296
lwrist 14.6183
lhand -30.2233 -9.44513
lfingers 7.12502
lthumb -3.53312 20.5053
rfemur -35.5884 1.33659 19.0573
rtibia 55.2233
rfoot -21.0673 -4.58197
rtoes 8.84381
lfemur -33.7072 8.57246 -17.8909
ltibia 51.6304
lfoot -19.7324 5.531
ltoes -4.57751
250
root 0.463914 16.3954 -3.62468 4.79785 -9.01496 -0.197913
lowerback 8.15951 -0.66245 -1.21028
upperback 5.32148 -0.972778 1.72061
thorax 0.981823 -0.551201 2.52341
lowerneck -11.1662 2.48829 0.292273
upperneck 33.1181 4.36625 -2.82175
head 12.985 1.55389 -0.53886
rclavicle 1.93815e-014 -2.5842e-014
rhumerus -16.8169 -15.0076 -81.7519
rradius 22.4563
rwrist 36.2866
rhand -25.2594 -26.8515
rfingers 7.12502
rthumb 1.26108 -56.8276
lclavicle 1.93815e-014 -2.5842e-014
lhumerus -5.20379 4.34303 84.0467
lradius 18.2783
lwrist 14.156
lhand -30.1314 -9.35202
lfingers 7.12502
lthumb -3.44439 20.5999
rfemur -35.8117 1.54928 18.8956
rtibia 54.8107
rfoot -20.7918 -4.42951
rtoes 9.0025
lfemur -33.7603 8.8156 -18.1073
ltibia 51.1002
lfoot -19.5333 5.44293
ltoes -4.25436
251
root 0.469315 16.4271 -3.62686 5.08372 -9.31407 -0.082307
lowerback 8.29867 -0.661182 -1.27193
upperback 5.38943 -0.976955 1.68207
thorax 0.976586 -0.55514 2.52029
lowerneck -11.2049 2.5445 0.281322
upperneck 33.0383 4.46294 -2.87756
head 12.9632 1.58764 -0.544249
rclavicle 0 2.78299e-015
rhumerus -16.9693 -15.3915 -81.5697
rradius 22.1442
rwrist 36.7732
rhand -25.1878 -26.9012
rfingers 7.12502
rthumb 1.33018 -56.8768
lclavicle 0 2.78299e-015
lhumerus -4.79037 4.80366 83.932
lradius 18.006
lwrist 13.5536
lhand -30.0796 -9.25715
lfingers 7.12502
lthumb -3.39437 20.6956
rfemur -35.9694 1.70473 18.7484
rtibia 54.3755
rfoot -20.5668 -4.24958
rtoes 9.10895
lfemur -33.7892 9.06459 -18.3093
ltibia 50.5839
lfoot -19.3449 5.3482
ltoes -3.98498
252
root 0.473884 16.458 -3.62775 5.35582 -9.56183 0.0151942
lowerback 8.4207 -0.669362 -1.31772
upperback 5.45595 -0.992594 1.64684
thorax 0.979734 -0.564528 2.51225
lowerneck -11.2321 2.59171 0.271863
upperneck 32.9711 4.53757 -2.90666
head 12.9429 1.61531 -0.542862
rclavicle 5.48646e-014 -1.59028e-015
rhumerus -17.1305 -15.7842 -81.3759
rradius 21.8148
rwrist 37.2866
rhand -25.1185 -26.9462
rfingers 7.12502
rthumb 1.3971 -56.9214
lclavicle 5.48646e-014 -1.59028e-015
lhumerus -4.3593 5.33441 83.8442
lradius 17.713
lwrist 12.8508
lhand -30.0667 -9.15478
lfingers 7.12502
lthumb -3.38184 20.7981
rfemur -36.0765 1.79091 18.6224
rtibia 53.9156
rfoot -20.3794 -4.05092
rtoes 9.16164
lfemur -33.8151 9.30474 -18.4918
ltibia 50.0851
lfoot -19.1667 5.23494
ltoes -3.76422
